<svg xmlns="http://www.w3.org/2000/svg" viewBox="0 0 850 520" role="img" aria-label="Jharkhand district challenge density heatmap">
  <style>
    .district { stroke: #f7f1e7; stroke-width: 1.5; stroke-linejoin: round; transition: opacity .18s ease, filter .18s ease; }
    .district:hover { opacity: .84; filter: saturate(1.12) brightness(.96); }
    .label { fill: #2e3d32; font-family: Arial, sans-serif; font-size: 8.6px; font-weight: 700; text-anchor: middle; letter-spacing: .25px; paint-order: stroke; stroke: rgba(247,241,231,.72); stroke-width: 2px; stroke-linejoin: round; }
  </style>
  <rect width="850" height="520" fill="#f7f1e7" />
  <g><path class="district" data-district="Sahibganj" d="M729.34 109.85 L729.70 110.09 L730.28 113.09 L730.28 113.17 L725.14 112.21 L723.39 113.90 L722.09 108.97 L717.70 109.37 L715.87 108.21 L717.34 107.04 L716.54 106.52 L714.79 106.96 L711.97 111.85 L711.61 110.25 L708.12 110.05 L705.93 106.92 L704.90 107.65 L703.69 106.28 L697.60 105.16 L695.81 103.04 L693.93 103.36 L695.76 101.40 L699.08 103.00 L696.93 100.96 L691.96 100.96 L689.27 98.27 L687.12 98.87 L687.66 101.88 L683.54 102.36 L683.49 102.32 L682.55 102.04 L679.06 97.79 L679.42 94.02 L676.11 93.22 L677.76 91.02 L675.70 89.46 L677.72 87.78 L675.88 82.85 L679.11 77.60 L676.37 75.52 L676.37 75.48 L682.15 71.63 L683.67 68.95 L682.82 67.02 L685.15 66.14 L678.39 59.85 L682.15 55.00 L679.19 47.47 L678.61 42.43 L678.57 41.94 L679.06 40.94 L682.28 38.38 L680.49 33.17 L681.34 32.29 L682.46 33.89 L688.19 35.45 L689.40 28.44 L692.09 28.20 L693.93 26.00 L694.96 27.00 L694.02 28.48 L694.02 28.56 L696.08 29.97 L697.64 30.97 L697.73 31.05 L697.82 31.01 L700.33 30.09 L703.69 31.77 L708.84 31.21 L707.90 31.97 L709.73 32.25 L709.02 34.93 L711.52 36.34 L711.48 38.70 L711.52 38.70 L720.88 39.66 L720.97 54.48 L723.93 58.09 L723.25 62.30 L745.24 78.12 L746.09 85.33 L736.42 94.51 L737.72 98.95 L733.69 98.83 L733.42 98.83 L735.17 102.28 L733.33 103.68 L733.42 105.64 L731.36 107.45 L728.90 106.88 L728.67 103.80 L728.67 103.64 L728.27 104.48 L726.61 107.81 L726.34 108.41 L729.34 109.85Z" fill="#eadbc2" />
<path class="district" data-district="Godda" d="M679.19 47.47 L682.15 55.00 L678.39 59.85 L685.15 66.14 L682.82 67.02 L683.67 68.95 L682.15 71.63 L676.37 75.48 L676.37 75.52 L679.11 77.60 L675.88 82.85 L677.72 87.78 L675.70 89.46 L677.76 91.02 L676.11 93.22 L679.42 94.02 L679.06 97.79 L682.55 102.04 L683.49 102.32 L683.54 102.36 L683.54 102.36 L681.88 104.52 L676.64 103.20 L673.73 107.12 L673.24 107.81 L676.55 111.57 L678.43 117.50 L678.52 123.23 L674.85 125.43 L674.49 127.28 L676.73 127.52 L675.93 131.44 L677.58 134.01 L675.12 135.09 L673.78 134.17 L668.99 138.73 L667.11 137.09 L667.28 141.30 L668.05 142.14 L671.63 141.62 L671.18 141.86 L671.05 141.90 L665.99 143.26 L665.27 143.14 L664.15 141.62 L655.46 130.08 L651.08 129.12 L646.69 131.80 L643.19 130.04 L641.05 130.60 L635.90 127.60 L634.64 127.84 L630.57 125.79 L629.94 125.27 L629.72 125.31 L627.75 125.99 L621.79 123.91 L620.49 124.43 L620.09 126.11 L620.22 123.11 L624.03 112.41 L623.99 112.29 L624.12 111.97 L622.55 109.77 L624.57 108.25 L623.81 105.28 L626.13 101.76 L623.18 101.00 L623.40 99.63 L625.55 98.91 L628.06 94.99 L632.72 93.70 L632.85 93.66 L634.60 90.94 L632.99 85.61 L634.28 83.81 L633.16 82.49 L634.28 77.48 L633.08 71.75 L637.33 66.34 L639.30 65.06 L642.16 63.22 L642.39 61.78 L645.75 62.06 L646.33 58.21 L650.31 61.37 L653.85 62.14 L658.28 43.39 L664.46 45.83 L667.28 43.11 L667.87 43.03 L669.08 43.47 L670.06 44.59 L679.19 47.47Z" fill="#e7a96a" />
<path class="district" data-district="Pakur" d="M683.54 102.36 L687.66 101.88 L687.12 98.87 L689.27 98.27 L691.96 100.96 L696.93 100.96 L699.08 103.00 L695.76 101.40 L693.93 103.36 L695.81 103.04 L697.60 105.16 L703.69 106.28 L704.90 107.65 L705.93 106.92 L708.12 110.05 L711.61 110.25 L711.97 111.85 L714.79 106.96 L716.54 106.52 L717.34 107.04 L715.87 108.21 L717.70 109.37 L722.09 108.97 L723.39 113.90 L725.14 112.21 L730.28 113.17 L730.28 113.09 L729.70 110.09 L729.34 109.85 L731.22 110.69 L732.93 111.49 L733.37 111.29 L735.30 110.29 L736.33 112.57 L738.79 113.05 L736.11 118.90 L740.05 120.79 L739.69 124.75 L738.48 127.84 L734.27 128.00 L739.28 128.48 L738.93 131.88 L736.69 132.48 L736.46 134.69 L736.37 134.73 L736.37 134.73 L731.05 136.29 L727.69 135.69 L727.51 134.13 L726.03 133.49 L723.97 132.64 L722.85 132.16 L719.90 132.16 L719.76 133.93 L722.63 133.77 L725.05 137.17 L723.75 137.69 L724.28 142.98 L723.03 143.58 L724.15 144.54 L725.18 141.78 L725.40 144.86 L727.60 144.14 L725.31 146.95 L727.15 149.55 L724.28 150.11 L722.36 154.80 L723.84 156.36 L724.78 154.92 L724.91 155.04 L725.31 155.84 L723.43 157.36 L723.08 157.64 L723.03 157.68 L723.97 160.05 L718.91 165.98 L719.76 168.38 L718.51 170.34 L714.12 173.11 L711.79 172.35 L710.81 176.99 L704.72 179.08 L704.22 180.28 L701.49 177.75 L693.57 177.43 L694.42 168.30 L691.87 159.49 L691.46 144.06 L692.63 142.74 L691.15 140.66 L691.02 140.46 L687.34 142.66 L679.37 139.69 L671.18 141.86 L671.63 141.62 L668.05 142.14 L667.28 141.30 L667.11 137.09 L668.99 138.73 L673.78 134.17 L675.12 135.09 L677.58 134.01 L675.93 131.44 L676.73 127.52 L674.49 127.28 L674.85 125.43 L678.52 123.23 L678.43 117.50 L676.55 111.57 L673.24 107.81 L673.73 107.12 L676.64 103.20 L681.88 104.52 L683.54 102.36 L683.54 102.36Z" fill="#eadbc2" />
<path class="district" data-district="Giridih" d="M536.99 161.45 L537.52 161.53 L537.43 163.25 L537.39 163.41 L539.22 164.01 L537.48 166.58 L539.99 167.26 L539.54 169.66 L541.73 173.23 L544.02 173.83 L545.58 179.76 L544.55 181.04 L545.72 182.24 L541.28 191.94 L546.03 191.73 L546.75 191.09 L548.31 191.61 L552.57 192.98 L553.33 193.22 L553.28 193.38 L553.24 193.46 L549.43 203.15 L547.55 205.56 L541.24 206.88 L540.97 206.92 L540.16 209.00 L540.12 209.16 L540.12 209.20 L541.15 208.80 L541.15 209.88 L541.15 209.96 L541.15 210.00 L540.97 210.00 L536.58 209.36 L531.57 208.64 L530.40 207.68 L526.82 204.80 L526.82 204.84 L525.03 206.32 L524.94 206.32 L524.72 206.32 L520.87 206.24 L520.33 208.04 L518.22 208.80 L521.31 210.56 L521.27 212.13 L517.55 216.25 L514.78 224.71 L505.02 221.30 L492.84 222.90 L491.58 226.63 L491.54 226.71 L491.54 226.71 L491.54 226.71 L489.43 228.67 L488.49 228.75 L487.82 229.19 L487.55 228.79 L484.06 223.90 L473.49 225.35 L469.78 227.67 L469.69 227.75 L469.60 227.43 L466.37 223.10 L466.69 221.62 L464.58 223.42 L464.00 220.66 L461.94 220.26 L462.34 220.02 L464.45 218.82 L464.49 215.93 L460.02 214.17 L459.25 211.12 L459.12 211.04 L456.97 212.21 L456.93 212.21 L454.33 210.56 L456.93 208.48 L456.43 205.96 L453.97 206.44 L451.42 203.11 L448.60 204.47 L446.58 203.71 L447.12 202.19 L442.15 200.23 L443.31 199.07 L442.24 198.71 L437.27 199.99 L434.04 199.03 L434.22 195.58 L429.03 192.70 L430.06 188.73 L445.37 183.76 L446.67 181.68 L449.09 184.04 L453.03 182.68 L454.64 183.64 L453.93 178.59 L451.37 177.67 L451.33 177.63 L453.39 175.19 L453.48 175.11 L455.04 173.19 L456.66 173.19 L456.07 168.18 L453.52 167.62 L452.72 165.86 L454.06 155.68 L451.51 154.20 L450.61 151.31 L454.24 148.19 L455.94 140.10 L447.93 137.01 L447.93 136.89 L447.43 133.57 L445.19 131.28 L446.67 128.60 L444.52 129.56 L442.78 128.44 L442.78 128.40 L442.69 125.15 L442.64 123.79 L442.64 123.75 L445.55 120.51 L446.27 120.51 L448.69 120.43 L452.18 120.35 L448.87 112.73 L454.10 110.49 L458.36 111.61 L458.18 109.01 L460.60 106.92 L460.73 106.80 L464.90 110.69 L466.02 111.17 L470.04 111.45 L471.48 109.29 L481.78 105.00 L481.87 104.96 L482.04 107.61 L479.31 110.37 L483.39 108.85 L483.57 108.89 L483.97 108.97 L487.24 109.81 L487.91 110.69 L492.03 116.22 L492.39 119.42 L490.19 123.83 L492.57 129.40 L499.64 132.28 L503.81 130.68 L503.99 127.96 L510.12 132.92 L518.94 131.72 L515.90 135.33 L516.88 137.17 L515.40 139.13 L517.06 142.22 L512.49 148.51 L515.63 149.19 L515.00 150.51 L518.18 151.87 L522.61 151.19 L523.87 153.60 L526.51 153.36 L529.02 155.52 L529.19 155.84 L531.48 160.37 L534.84 161.01 L536.99 161.45Z" fill="#dd7b3b" />
<path class="district" data-district="Dumka" d="M620.09 126.11 L620.49 124.43 L621.79 123.91 L627.75 125.99 L629.72 125.31 L629.94 125.27 L630.57 125.79 L634.64 127.84 L635.90 127.60 L641.05 130.60 L643.19 130.04 L646.69 131.80 L651.08 129.12 L655.46 130.08 L664.15 141.62 L665.27 143.14 L665.99 143.26 L671.05 141.90 L671.18 141.86 L679.37 139.69 L687.34 142.66 L691.02 140.46 L691.15 140.66 L692.63 142.74 L691.46 144.06 L691.87 159.49 L694.42 168.30 L693.57 177.43 L701.49 177.75 L701.54 177.95 L701.45 177.87 L702.48 181.20 L701.40 183.32 L706.42 184.32 L706.78 186.13 L709.73 187.13 L709.28 192.42 L706.19 193.42 L706.55 192.14 L705.03 191.29 L701.90 191.90 L700.37 190.33 L692.76 190.77 L697.51 194.74 L694.06 195.90 L692.54 197.58 L693.43 200.95 L690.39 201.83 L688.19 201.23 L686.67 198.22 L681.88 196.74 L682.28 198.99 L680.76 200.59 L683.76 201.63 L681.21 202.43 L681.21 203.07 L681.25 203.87 L681.30 205.60 L682.51 206.08 L683.76 208.20 L678.93 211.45 L673.60 211.33 L676.73 214.41 L676.73 214.73 L674.14 215.61 L673.87 215.61 L662.90 211.33 L661.60 213.33 L658.28 213.05 L657.34 212.21 L657.21 211.97 L659.49 210.20 L659.63 208.40 L652.87 209.16 L647.00 206.88 L646.91 206.84 L645.66 209.04 L645.30 209.72 L645.25 209.72 L645.21 209.76 L642.70 209.84 L631.78 208.00 L628.28 204.27 L626.31 198.27 L623.22 198.31 L619.42 194.18 L614.22 192.82 L612.61 195.50 L610.11 195.86 L609.57 198.18 L609.30 198.02 L607.64 197.14 L608.18 195.50 L603.79 194.18 L603.79 194.18 L605.18 190.13 L607.06 190.41 L607.91 188.37 L610.06 187.97 L609.12 183.52 L609.16 183.52 L614.54 183.56 L618.52 185.89 L619.91 184.56 L619.15 182.12 L622.11 178.19 L617.05 176.47 L615.75 170.62 L607.55 169.66 L608.27 164.33 L604.28 163.25 L604.15 160.29 L602.67 159.33 L605.36 154.76 L599.49 156.00 L599.22 153.08 L597.52 152.84 L597.39 152.84 L597.43 151.11 L600.43 148.79 L599.45 147.59 L601.46 144.14 L601.46 143.82 L600.84 137.13 L600.84 136.97 L600.21 130.48 L605.31 124.91 L604.78 122.67 L604.78 122.67 L607.11 123.11 L606.34 125.55 L609.88 124.31 L612.34 127.12 L615.66 125.75 L616.06 127.72 L619.51 128.60 L620.05 126.27 L620.09 126.11Z" fill="#e7a96a" />
<path class="district" data-district="Deoghar" d="M553.24 193.46 L553.28 193.38 L553.33 193.22 L552.57 192.98 L548.31 191.61 L546.75 191.09 L546.03 191.73 L541.28 191.94 L545.72 182.24 L544.55 181.04 L545.58 179.76 L544.02 173.83 L541.73 173.23 L539.54 169.66 L539.99 167.26 L537.48 166.58 L539.22 164.01 L537.39 163.41 L537.43 163.25 L537.52 161.53 L536.99 161.45 L538.78 160.37 L538.96 160.29 L538.96 160.01 L539.09 154.36 L539.09 154.16 L540.88 153.76 L540.39 152.84 L542.31 153.76 L542.72 150.99 L542.90 149.83 L541.24 148.23 L543.88 144.74 L543.48 142.38 L547.37 137.61 L550.82 138.77 L551.72 134.77 L554.72 134.53 L558.52 128.84 L558.57 128.72 L558.93 128.72 L558.88 129.96 L560.76 129.88 L563.49 132.84 L564.61 134.01 L565.69 133.93 L576.12 132.72 L578.18 130.52 L578.67 127.40 L581.45 127.44 L586.64 130.00 L585.43 134.01 L591.16 133.37 L590.81 135.05 L593.00 136.17 L596.40 133.49 L600.84 137.13 L601.46 143.82 L601.46 144.14 L599.45 147.59 L600.43 148.79 L597.43 151.11 L597.39 152.84 L597.52 152.84 L599.22 153.08 L599.49 156.00 L605.36 154.76 L602.67 159.33 L604.15 160.29 L604.28 163.25 L608.27 164.33 L607.55 169.66 L615.75 170.62 L617.05 176.47 L622.11 178.19 L619.15 182.12 L619.91 184.56 L618.52 185.89 L614.54 183.56 L609.16 183.52 L609.12 183.52 L610.06 187.97 L607.91 188.37 L607.06 190.41 L605.18 190.13 L603.79 194.18 L603.79 194.18 L608.18 195.50 L607.64 197.14 L609.30 198.02 L609.30 198.02 L609.57 198.18 L608.76 199.51 L608.76 199.59 L609.88 202.11 L609.52 204.59 L606.84 205.68 L606.43 207.32 L597.16 203.47 L590.49 206.12 L587.90 204.31 L587.18 201.59 L584.13 202.19 L583.73 204.35 L581.36 203.91 L579.25 202.11 L580.64 201.27 L579.84 200.27 L570.97 197.46 L571.15 194.46 L573.48 193.30 L573.52 191.73 L570.88 190.17 L568.60 195.18 L553.69 193.78 L553.24 193.46Z" fill="#dd7b3b" />
<path class="district" data-district="Palamu" d="M179.13 139.33 L179.18 139.29 L187.95 136.89 L188.36 136.45 L196.46 125.91 L197.94 123.99 L197.98 123.95 L204.03 128.44 L203.85 131.72 L205.42 131.72 L204.92 133.73 L206.94 134.41 L207.57 138.01 L209.72 139.01 L208.69 142.90 L211.82 146.87 L214.10 146.43 L214.24 144.82 L216.34 143.70 L215.49 140.42 L217.01 138.57 L219.43 139.13 L218.49 142.26 L221.54 143.02 L222.57 140.70 L220.78 137.49 L222.92 136.37 L223.37 136.33 L223.82 136.25 L224.54 136.17 L226.33 138.85 L226.91 138.49 L227.36 137.25 L229.51 136.81 L229.51 138.33 L232.42 140.02 L235.60 137.21 L234.34 135.41 L237.97 135.33 L242.04 145.14 L238.73 146.59 L237.21 148.43 L237.43 148.99 L238.06 150.83 L241.42 151.23 L243.34 153.28 L241.28 154.72 L243.16 154.80 L244.24 158.52 L244.24 158.56 L248.63 159.93 L250.60 159.20 L251.45 161.33 L253.19 161.13 L252.39 162.53 L256.55 163.65 L255.66 167.38 L260.63 166.34 L261.57 169.10 L263.90 169.70 L266.63 167.46 L264.12 170.58 L265.42 172.99 L265.55 173.27 L265.37 173.31 L264.79 176.79 L260.31 176.19 L258.88 179.88 L262.64 181.64 L262.64 184.52 L264.70 185.41 L271.42 185.08 L270.66 188.41 L273.39 192.02 L277.55 193.46 L276.75 196.42 L273.70 199.03 L275.13 202.51 L276.92 203.23 L275.67 205.96 L274.01 206.40 L273.84 206.60 L275.22 208.76 L273.66 211.89 L277.01 214.81 L277.51 215.21 L278.54 216.09 L278.49 216.17 L275.90 218.74 L275.40 223.06 L275.40 223.14 L270.48 222.30 L268.60 224.02 L269.63 226.75 L265.19 227.55 L264.16 227.75 L261.97 224.67 L263.45 222.82 L261.88 219.02 L259.46 218.54 L259.19 218.50 L256.01 220.42 L253.06 222.22 L244.42 219.58 L243.12 225.63 L237.57 224.75 L232.46 226.35 L230.49 228.51 L229.95 227.47 L232.55 224.63 L231.70 222.70 L227.04 225.79 L222.21 222.02 L216.43 220.66 L217.01 223.90 L215.85 226.35 L205.60 232.88 L203.76 236.12 L204.48 238.61 L204.43 238.65 L203.98 239.09 L201.88 241.21 L201.79 241.21 L199.91 240.37 L199.51 240.57 L199.46 240.61 L197.63 241.49 L196.91 241.85 L196.91 241.61 L196.86 238.45 L194.04 233.32 L187.95 231.36 L188.49 223.82 L184.78 221.74 L181.95 215.69 L178.28 215.57 L178.19 219.34 L173.45 219.98 L171.43 218.86 L171.52 218.82 L173.81 217.25 L174.75 214.29 L172.55 212.93 L175.64 207.96 L177.52 207.68 L178.01 203.43 L184.33 199.87 L187.01 199.87 L189.97 199.87 L191.13 197.90 L194.76 198.55 L195.16 198.39 L192.30 192.22 L187.73 190.37 L180.25 184.56 L171.57 172.99 L171.61 172.87 L172.51 170.38 L173.13 168.54 L172.15 166.38 L170.67 163.77 L170.81 163.41 L171.88 160.49 L176.18 157.32 L176.27 146.22 L179.13 139.33Z" fill="#e7a96a" />
<path class="district" data-district="Chatra" d="M277.01 214.81 L273.66 211.89 L275.22 208.76 L273.84 206.60 L274.01 206.40 L275.67 205.96 L276.92 203.23 L275.13 202.51 L273.70 199.03 L276.75 196.42 L277.55 193.46 L273.39 192.02 L270.66 188.41 L271.42 185.08 L264.70 185.41 L262.64 184.52 L262.64 181.64 L258.88 179.88 L260.31 176.19 L264.79 176.79 L265.37 173.31 L265.55 173.27 L265.64 173.39 L265.73 173.27 L266.81 171.62 L270.57 166.14 L270.30 163.61 L270.07 161.29 L270.03 161.09 L273.66 161.41 L276.21 160.01 L274.69 158.12 L275.54 156.36 L277.69 155.84 L278.09 157.60 L286.46 157.20 L289.10 158.88 L292.01 149.75 L297.84 147.95 L301.55 143.78 L305.85 143.26 L308.13 139.53 L313.15 142.02 L312.30 147.91 L313.42 148.07 L313.28 150.35 L315.21 148.39 L316.64 149.71 L318.21 148.31 L319.87 148.87 L319.15 154.20 L322.24 158.28 L322.19 161.49 L328.46 161.25 L329.13 161.57 L331.82 161.17 L332.04 161.13 L332.09 161.09 L339.39 155.48 L344.09 156.60 L346.55 153.00 L346.82 157.84 L345.57 160.29 L347.76 161.25 L347.67 161.73 L347.22 162.13 L347.49 162.77 L349.42 167.54 L355.24 167.42 L354.39 163.69 L360.88 166.82 L363.21 167.94 L363.21 167.90 L364.15 166.02 L366.93 165.33 L374.67 166.98 L377.40 166.14 L378.88 167.10 L382.10 169.22 L382.60 169.50 L384.66 170.02 L385.60 170.26 L385.82 170.30 L388.10 168.50 L388.10 168.50 L388.10 168.50 L388.19 170.02 L384.88 172.51 L383.58 170.54 L380.09 170.14 L380.76 172.14 L379.51 172.59 L379.01 177.91 L380.09 178.71 L377.13 180.28 L377.40 185.45 L373.19 183.08 L357.79 181.20 L356.18 184.04 L354.25 184.52 L356.13 187.73 L355.33 191.41 L356.49 191.25 L359.67 195.90 L358.46 196.26 L359.72 197.66 L359.09 199.27 L368.31 203.23 L369.16 204.23 L370.01 208.32 L369.93 211.29 L369.88 211.37 L367.37 211.49 L367.37 211.53 L367.33 211.81 L366.88 213.53 L365.09 214.09 L365.04 214.13 L365.04 214.13 L365.04 214.17 L363.43 218.90 L363.39 219.06 L363.21 219.18 L356.09 219.94 L352.69 216.37 L349.15 216.45 L347.22 218.86 L345.88 218.38 L346.10 215.41 L342.93 215.05 L341.49 212.77 L338.94 214.25 L339.39 218.10 L343.24 218.86 L340.82 221.54 L341.94 225.07 L339.39 224.83 L338.49 229.39 L338.45 229.59 L338.49 229.59 L339.88 229.79 L339.88 229.95 L339.70 232.52 L343.78 236.16 L342.03 236.96 L341.58 239.41 L342.16 248.10 L344.40 250.22 L341.90 250.18 L342.75 252.95 L342.84 253.15 L342.61 253.15 L342.34 253.11 L340.46 256.03 L337.01 255.27 L336.03 257.28 L334.01 254.11 L331.95 252.95 L331.37 252.31 L331.28 252.59 L327.79 250.63 L326.94 250.10 L325.64 244.82 L322.10 244.06 L322.42 242.13 L323.45 240.37 L327.39 239.89 L328.10 239.93 L328.10 239.81 L328.24 234.40 L325.69 232.28 L328.91 230.23 L327.43 225.95 L325.28 224.91 L326.13 221.74 L326.31 221.22 L325.60 220.62 L325.15 220.22 L324.43 219.66 L323.36 219.94 L320.13 220.86 L314.67 217.82 L314.49 217.90 L311.90 218.98 L311.40 214.81 L308.58 216.85 L302.36 216.65 L304.06 215.01 L302.67 213.41 L303.75 211.53 L300.30 206.36 L300.25 206.40 L295.87 207.52 L296.09 209.44 L293.00 209.60 L289.78 213.25 L287.31 212.29 L285.12 214.45 L277.01 214.81Z" fill="#efc394" />
<path class="district" data-district="Garhwa" d="M179.13 139.33 L176.27 146.22 L176.18 157.32 L171.88 160.49 L170.81 163.41 L170.67 163.77 L172.15 166.38 L173.13 168.54 L172.51 170.38 L171.61 172.87 L171.57 172.99 L180.25 184.56 L187.73 190.37 L192.30 192.22 L195.16 198.39 L194.76 198.55 L191.13 197.90 L189.97 199.87 L187.01 199.87 L184.33 199.87 L178.01 203.43 L177.52 207.68 L175.64 207.96 L172.55 212.93 L174.75 214.29 L173.81 217.25 L171.52 218.82 L171.43 218.86 L173.45 219.98 L178.19 219.34 L178.28 215.57 L181.95 215.69 L184.78 221.74 L188.49 223.82 L187.95 231.36 L194.04 233.32 L196.86 238.45 L196.91 241.61 L196.91 241.85 L197.63 241.49 L199.46 240.61 L199.86 242.57 L199.95 243.09 L197.72 247.82 L197.58 248.06 L197.58 248.10 L194.36 250.18 L194.27 250.27 L194.40 250.39 L199.95 255.35 L205.78 255.59 L206.13 255.87 L203.89 260.20 L199.10 263.81 L187.37 265.73 L188.18 272.86 L171.21 269.09 L170.09 270.30 L169.15 268.29 L165.66 267.17 L165.61 265.53 L162.39 263.20 L163.69 261.44 L158.36 256.67 L161.58 251.99 L160.42 246.30 L158.18 244.78 L155.94 237.97 L150.30 237.00 L149.58 234.00 L137.36 232.24 L139.37 228.87 L134.89 227.23 L134.04 221.78 L129.57 215.77 L130.78 211.53 L129.66 209.32 L120.75 207.16 L117.97 201.19 L114.52 201.95 L111.92 199.23 L103.91 198.95 L104.22 198.63 L104.49 198.67 L107.22 195.78 L111.25 185.65 L110.67 181.16 L114.88 176.15 L114.61 173.07 L111.70 171.66 L110.89 169.62 L115.19 165.98 L118.15 166.22 L118.19 166.14 L121.55 162.53 L118.37 157.52 L114.30 156.96 L114.30 152.63 L112.78 152.84 L111.75 150.87 L113.58 144.06 L127.15 140.46 L127.91 140.22 L128.04 140.26 L128.27 140.22 L140.76 142.02 L153.52 141.86 L157.78 143.30 L169.01 139.65 L169.15 139.65 L169.60 139.61 L177.75 138.65 L179.09 139.29 L179.13 139.33Z" fill="#e7a96a" />
<path class="district" data-district="Jamtara" d="M540.97 210.00 L541.15 210.00 L541.15 209.96 L541.15 209.88 L541.15 208.80 L540.12 209.20 L540.12 209.16 L540.16 209.00 L540.97 206.92 L541.24 206.88 L547.55 205.56 L549.43 203.15 L553.24 193.46 L553.69 193.78 L568.60 195.18 L570.88 190.17 L573.52 191.73 L573.48 193.30 L571.15 194.46 L570.97 197.46 L579.84 200.27 L580.64 201.27 L579.25 202.11 L581.36 203.91 L583.73 204.35 L584.13 202.19 L587.18 201.59 L587.90 204.31 L590.49 206.12 L597.16 203.47 L606.43 207.32 L606.84 205.68 L609.52 204.59 L609.88 202.11 L608.76 199.59 L608.76 199.51 L609.57 198.18 L609.30 198.02 L609.30 198.02 L609.57 198.18 L610.11 195.86 L612.61 195.50 L614.22 192.82 L619.42 194.18 L623.22 198.31 L626.31 198.27 L628.28 204.27 L631.78 208.00 L642.70 209.84 L645.21 209.76 L645.25 209.72 L645.30 209.72 L647.22 213.29 L649.33 212.61 L649.28 217.49 L649.28 217.65 L653.49 218.78 L652.33 223.94 L653.81 226.79 L650.27 230.51 L647.94 227.03 L648.61 225.79 L647.05 225.75 L646.28 231.08 L648.34 234.76 L646.24 237.24 L643.02 236.68 L645.30 233.00 L641.45 233.00 L639.12 234.96 L640.15 232.80 L637.96 233.52 L635.76 231.80 L630.84 231.28 L630.93 233.40 L636.08 237.37 L633.61 241.29 L632.31 240.17 L628.42 240.97 L629.00 239.85 L629.00 239.85 L625.96 239.05 L625.28 238.89 L625.24 238.89 L625.24 238.89 L624.70 239.25 L624.25 239.53 L609.61 231.48 L609.25 231.32 L607.69 234.00 L605.49 234.44 L601.24 229.39 L596.40 232.08 L598.24 236.00 L597.61 238.13 L595.51 234.24 L588.66 238.81 L588.52 238.93 L588.21 238.69 L586.91 237.49 L585.34 236.12 L583.51 234.48 L582.34 233.20 L581.81 232.96 L580.55 232.36 L578.94 231.64 L576.21 232.52 L573.66 226.79 L564.88 223.26 L555.03 215.45 L546.57 214.81 L538.87 210.44 L540.97 210.00Z" fill="#eadbc2" />
<path class="district" data-district="Dhanbad" d="M489.43 228.67 L491.54 226.71 L491.54 226.71 L491.54 226.71 L491.58 226.63 L492.84 222.90 L505.02 221.30 L514.78 224.71 L517.55 216.25 L521.27 212.13 L521.31 210.56 L518.22 208.80 L520.33 208.04 L520.87 206.24 L524.72 206.32 L524.94 206.32 L525.03 206.32 L526.82 204.84 L526.82 204.80 L530.40 207.68 L531.57 208.64 L536.58 209.36 L540.97 210.00 L538.87 210.44 L546.57 214.81 L555.03 215.45 L564.88 223.26 L573.66 226.79 L576.21 232.52 L578.94 231.64 L580.55 232.36 L581.81 232.96 L582.34 233.20 L583.51 234.48 L585.34 236.12 L585.21 236.12 L586.46 237.65 L586.55 237.77 L586.55 237.81 L585.70 240.65 L588.97 245.70 L589.06 245.82 L589.02 246.06 L589.02 246.46 L588.97 247.54 L586.78 248.46 L585.34 254.83 L585.21 255.43 L577.91 257.64 L576.75 255.47 L573.30 254.95 L573.08 254.91 L557.18 258.32 L553.87 261.96 L547.42 264.41 L542.22 263.37 L541.60 263.53 L541.87 263.41 L535.19 261.20 L528.52 258.96 L528.21 258.84 L525.75 253.15 L522.25 252.79 L520.64 254.19 L517.02 251.83 L508.06 252.95 L502.37 252.15 L499.73 251.35 L499.69 251.27 L500.72 247.86 L496.37 241.05 L496.60 236.96 L494.00 236.64 L493.51 232.60 L493.51 232.56 L490.42 231.20 L490.37 231.20 L490.73 228.63 L490.78 228.59 L489.43 228.67Z" fill="#dd7b3b" />
<path class="district" data-district="Latehar" d="M199.46 240.61 L199.51 240.57 L199.91 240.37 L201.79 241.21 L201.88 241.21 L203.98 239.09 L204.43 238.65 L204.48 238.61 L203.76 236.12 L205.60 232.88 L215.85 226.35 L217.01 223.90 L216.43 220.66 L222.21 222.02 L227.04 225.79 L231.70 222.70 L232.55 224.63 L229.95 227.47 L230.49 228.51 L232.46 226.35 L237.57 224.75 L243.12 225.63 L244.42 219.58 L253.06 222.22 L256.01 220.42 L259.19 218.50 L259.46 218.54 L261.88 219.02 L263.45 222.82 L261.97 224.67 L264.16 227.75 L265.19 227.55 L269.63 226.75 L268.60 224.02 L270.48 222.30 L275.40 223.14 L275.40 223.06 L275.90 218.74 L278.49 216.17 L278.54 216.09 L277.51 215.21 L277.01 214.81 L285.12 214.45 L287.31 212.29 L289.78 213.25 L293.00 209.60 L296.09 209.44 L295.87 207.52 L300.25 206.40 L300.30 206.36 L303.75 211.53 L302.67 213.41 L304.06 215.01 L302.36 216.65 L308.58 216.85 L311.40 214.81 L311.90 218.98 L314.49 217.90 L314.67 217.82 L320.13 220.86 L323.36 219.94 L324.43 219.66 L325.15 220.22 L325.60 220.62 L326.31 221.22 L326.13 221.74 L325.28 224.91 L327.43 225.95 L328.91 230.23 L325.69 232.28 L328.24 234.40 L328.10 239.81 L328.10 239.93 L327.39 239.89 L323.45 240.37 L322.42 242.13 L322.10 244.06 L325.64 244.82 L326.94 250.10 L327.79 250.63 L331.28 252.59 L330.34 255.11 L328.46 254.31 L324.79 258.92 L324.34 261.80 L327.57 263.29 L328.19 267.49 L326.54 275.46 L325.01 274.78 L323.00 276.63 L322.33 270.62 L321.12 274.34 L319.51 274.22 L319.51 274.22 L315.84 277.87 L310.73 276.02 L310.64 275.98 L310.91 272.86 L307.55 273.50 L308.09 271.42 L306.79 271.86 L306.25 276.18 L306.07 276.02 L306.03 275.98 L305.09 275.06 L305.67 272.42 L303.79 271.74 L302.09 267.73 L300.21 267.37 L298.95 263.29 L298.82 263.16 L296.94 265.81 L290.85 267.73 L291.30 266.09 L289.01 264.97 L285.75 259.04 L281.81 260.44 L280.01 259.08 L278.63 259.64 L277.55 266.21 L275.00 266.33 L271.51 259.04 L266.72 258.16 L261.88 260.48 L261.39 264.77 L251.85 263.33 L252.03 267.89 L252.03 268.17 L250.60 267.97 L246.34 267.33 L244.10 268.65 L244.06 270.70 L240.88 271.30 L242.76 278.39 L242.22 283.32 L240.57 283.36 L240.66 284.96 L236.94 283.36 L235.73 287.00 L234.97 286.36 L231.16 289.57 L230.85 289.85 L232.73 298.78 L230.27 303.35 L224.72 304.91 L223.37 306.71 L212.72 303.19 L210.16 305.87 L207.21 305.55 L207.16 305.55 L204.25 302.91 L203.89 299.86 L203.54 299.82 L200.00 299.38 L197.76 302.51 L193.06 301.06 L191.58 298.34 L194.27 293.21 L192.79 287.04 L198.84 281.95 L200.72 276.10 L200.98 268.57 L198.21 265.05 L198.92 264.05 L199.10 263.81 L203.89 260.20 L206.13 255.87 L205.78 255.59 L199.95 255.35 L194.40 250.39 L194.27 250.27 L194.36 250.18 L197.58 248.10 L197.58 248.06 L197.72 247.82 L199.95 243.09 L199.86 242.57 L199.46 240.61Z" fill="#efc394" />
<path class="district" data-district="Bokaro" d="M462.34 220.02 L461.94 220.26 L464.00 220.66 L464.58 223.42 L466.69 221.62 L466.37 223.10 L469.60 227.43 L469.69 227.75 L469.78 227.67 L473.49 225.35 L484.06 223.90 L487.55 228.79 L487.82 229.19 L488.49 228.75 L489.43 228.67 L490.78 228.59 L490.73 228.63 L490.37 231.20 L490.42 231.20 L493.51 232.56 L493.51 232.60 L494.00 236.64 L496.60 236.96 L496.37 241.05 L500.72 247.86 L499.69 251.27 L499.73 251.35 L502.37 252.15 L508.06 252.95 L517.02 251.83 L520.64 254.19 L522.25 252.79 L525.75 253.15 L528.21 258.84 L528.52 258.96 L535.19 261.20 L541.87 263.41 L541.60 263.53 L541.42 263.57 L538.24 264.45 L536.45 265.89 L536.36 265.97 L536.09 266.17 L536.22 268.77 L532.55 270.02 L531.61 271.82 L527.99 272.18 L528.07 274.10 L524.85 278.15 L526.24 281.19 L524.36 284.48 L526.69 284.48 L526.78 286.08 L524.63 286.40 L522.57 290.73 L520.51 289.77 L516.57 291.45 L518.22 292.61 L517.19 294.69 L514.42 293.81 L514.19 292.21 L510.84 292.05 L509.18 292.57 L510.16 294.45 L508.51 294.69 L506.13 292.01 L508.33 288.04 L506.49 287.68 L505.91 290.33 L498.75 286.64 L494.76 287.24 L496.46 281.31 L494.72 279.71 L496.19 274.18 L492.39 274.30 L491.67 272.78 L485.67 273.34 L484.69 273.02 L484.28 272.86 L484.96 271.46 L480.03 270.50 L476.54 275.86 L478.10 276.51 L479.58 282.76 L482.36 283.20 L481.69 284.28 L467.31 286.48 L458.49 284.56 L458.27 284.76 L458.13 284.60 L454.55 279.95 L451.24 279.55 L452.09 277.55 L449.27 275.42 L451.87 273.38 L448.15 271.74 L447.03 266.77 L444.84 264.57 L445.55 263.37 L442.01 261.12 L441.07 256.71 L440.13 259.84 L436.37 261.00 L434.27 264.01 L432.48 262.12 L429.48 262.00 L425.94 267.37 L420.75 264.01 L420.97 255.47 L419.94 254.63 L421.64 251.59 L420.75 245.62 L425.85 241.89 L426.21 238.93 L424.46 237.81 L423.52 240.37 L420.57 241.09 L416.31 233.40 L420.97 230.55 L420.25 226.67 L420.84 226.31 L426.88 222.10 L424.69 219.26 L425.31 219.30 L426.70 219.42 L427.37 219.06 L427.96 218.70 L428.22 218.54 L428.85 215.97 L429.16 214.93 L429.34 214.93 L431.72 215.73 L432.03 216.05 L432.21 216.17 L430.51 218.18 L430.42 218.26 L434.27 223.62 L434.27 223.58 L437.76 219.94 L441.34 220.78 L441.39 223.30 L446.45 227.47 L446.76 232.52 L448.24 234.56 L451.28 235.20 L454.91 231.80 L458.27 225.71 L458.85 219.14 L461.90 220.30 L462.34 220.02 L462.34 220.02Z" fill="#dd7b3b" />
<path class="district" data-district="Ramgarh" d="M424.69 219.26 L426.88 222.10 L420.84 226.31 L420.25 226.67 L420.97 230.55 L416.31 233.40 L420.57 241.09 L423.52 240.37 L424.46 237.81 L426.21 238.93 L425.85 241.89 L420.75 245.62 L421.64 251.59 L419.94 254.63 L420.97 255.47 L420.75 264.01 L425.94 267.37 L429.48 262.00 L432.48 262.12 L434.27 264.01 L436.37 261.00 L440.13 259.84 L441.07 256.71 L442.01 261.12 L445.55 263.37 L444.84 264.57 L447.03 266.77 L448.15 271.74 L451.87 273.38 L449.27 275.42 L452.09 277.55 L451.24 279.55 L454.55 279.95 L458.13 284.60 L458.27 284.76 L455.18 287.64 L454.60 292.09 L453.07 292.05 L452.45 293.09 L452.36 293.09 L449.72 288.76 L448.96 288.88 L446.22 289.29 L446.00 289.33 L445.87 289.29 L442.91 287.72 L441.30 287.96 L438.97 288.28 L436.69 288.60 L435.39 289.97 L434.94 290.17 L434.49 290.09 L427.82 288.08 L426.61 286.96 L420.88 285.28 L418.73 283.96 L412.19 277.31 L411.43 276.55 L411.30 276.43 L408.93 277.63 L407.36 276.59 L408.84 273.82 L407.76 271.38 L405.39 272.66 L406.28 275.70 L406.01 276.31 L405.16 276.22 L403.24 275.74 L402.21 274.90 L403.06 273.62 L401.04 272.46 L400.73 274.34 L398.09 275.54 L393.16 273.98 L390.39 274.82 L389.81 273.74 L388.82 275.50 L386.09 273.74 L382.10 274.18 L372.52 271.54 L369.07 269.45 L368.18 265.97 L363.88 264.81 L365.27 261.60 L366.34 261.00 L366.30 259.32 L366.84 258.12 L368.13 257.00 L367.37 256.84 L368.09 255.23 L369.30 253.11 L369.66 253.27 L371.72 255.15 L377.90 256.96 L382.06 254.11 L385.42 258.36 L388.82 258.72 L388.82 260.20 L397.19 260.92 L394.24 256.88 L394.69 253.47 L396.43 253.43 L396.57 251.63 L398.63 250.87 L400.64 245.62 L395.31 243.94 L394.55 241.65 L402.75 237.16 L403.19 235.44 L406.82 235.00 L407.27 233.56 L413.36 234.20 L414.97 229.91 L413.72 227.43 L415.33 224.39 L419.63 221.82 L419.81 218.90 L424.69 219.26Z" fill="#e7a96a" />
<path class="district" data-district="Ranchi" d="M331.28 252.59 L331.37 252.31 L331.95 252.95 L334.01 254.11 L336.03 257.28 L337.01 255.27 L340.46 256.03 L342.34 253.11 L342.61 253.15 L342.84 253.15 L344.76 253.31 L344.90 253.75 L344.98 254.07 L345.34 255.11 L344.18 255.35 L343.78 255.99 L343.82 256.76 L346.15 259.16 L351.61 259.84 L357.39 258.32 L358.51 259.40 L361.46 253.35 L366.52 254.55 L367.15 256.80 L367.24 256.80 L367.37 256.84 L368.13 257.00 L366.84 258.12 L366.30 259.32 L366.34 261.00 L365.27 261.60 L363.88 264.81 L368.18 265.97 L369.07 269.45 L372.52 271.54 L382.10 274.18 L386.09 273.74 L388.82 275.50 L389.81 273.74 L390.39 274.82 L393.16 273.98 L398.09 275.54 L400.73 274.34 L401.04 272.46 L403.06 273.62 L402.21 274.90 L403.24 275.74 L405.16 276.22 L406.01 276.31 L406.28 275.70 L405.39 272.66 L407.76 271.38 L408.84 273.82 L407.36 276.59 L408.93 277.63 L411.30 276.43 L411.43 276.55 L412.19 277.31 L418.73 283.96 L420.88 285.28 L426.61 286.96 L427.82 288.08 L434.49 290.09 L434.94 290.17 L435.39 289.97 L436.69 288.60 L438.97 288.28 L441.30 287.96 L442.91 287.72 L445.87 289.29 L446.00 289.33 L446.22 289.29 L448.96 288.88 L449.72 288.76 L452.36 293.09 L452.45 293.09 L453.07 292.05 L454.60 292.09 L458.18 292.17 L458.40 295.61 L460.69 296.54 L456.12 297.86 L456.16 297.94 L458.04 303.19 L455.58 304.43 L455.99 305.99 L451.78 309.36 L449.18 314.56 L451.73 317.53 L451.51 321.17 L451.55 321.17 L452.45 321.21 L455.54 321.21 L456.84 322.90 L457.91 324.42 L458.00 324.62 L457.82 328.27 L457.82 328.47 L458.22 328.71 L459.39 330.11 L456.43 330.07 L456.43 330.15 L456.21 332.35 L454.78 331.35 L452.58 332.63 L448.78 338.88 L446.63 340.20 L446.76 340.56 L447.84 341.12 L449.72 347.90 L448.19 350.30 L452.94 353.86 L453.79 359.63 L455.40 359.43 L457.02 361.44 L454.42 365.60 L455.31 367.81 L451.51 367.04 L451.51 364.96 L446.13 364.40 L436.64 359.59 L426.61 360.43 L425.40 363.12 L421.28 363.64 L420.84 361.36 L419.22 360.76 L415.91 364.64 L416.31 366.32 L411.57 361.44 L413.72 358.51 L416.81 359.27 L417.48 356.95 L419.13 356.87 L417.75 351.50 L422.76 353.02 L426.34 351.10 L424.15 349.42 L424.78 348.14 L422.27 347.53 L421.69 344.73 L423.97 344.01 L422.45 342.09 L415.96 342.89 L421.19 340.44 L420.70 335.80 L402.48 334.59 L399.25 329.11 L400.06 326.74 L393.21 327.78 L388.82 324.94 L384.88 326.22 L382.33 322.98 L382.42 325.74 L379.73 328.75 L378.75 328.02 L379.82 325.86 L375.25 323.46 L367.46 324.26 L366.16 322.94 L368.45 320.17 L366.79 319.73 L367.01 314.76 L362.00 315.08 L357.39 312.32 L355.10 316.61 L347.76 318.13 L342.07 324.82 L341.54 325.94 L341.36 327.22 L343.51 329.55 L343.51 329.59 L343.55 329.63 L342.07 332.35 L343.06 335.16 L342.97 335.16 L339.12 335.80 L340.19 339.28 L334.64 341.20 L334.87 345.09 L334.10 346.29 L332.67 348.62 L332.58 348.70 L332.58 348.70 L332.54 348.74 L330.70 348.50 L330.57 350.14 L330.43 350.22 L330.30 350.26 L327.97 351.38 L327.66 351.54 L327.66 351.50 L327.52 348.50 L326.22 347.33 L325.87 347.01 L325.60 346.77 L323.45 347.73 L322.19 344.01 L317.67 342.29 L316.91 338.08 L321.03 338.12 L321.48 336.56 L320.31 335.76 L319.73 333.71 L320.09 328.63 L324.52 328.51 L325.10 325.78 L323.13 324.82 L326.54 323.86 L328.69 320.61 L328.51 320.45 L326.98 319.49 L323.22 317.13 L321.16 315.85 L321.39 312.04 L324.88 308.92 L324.79 308.71 L324.61 308.35 L324.07 307.27 L322.19 306.31 L321.93 306.47 L322.64 303.67 L322.06 301.34 L319.82 300.54 L319.95 300.22 L320.81 298.42 L319.60 295.86 L319.69 295.73 L319.82 295.49 L321.84 292.25 L326.85 284.20 L327.79 282.63 L327.66 281.87 L326.13 279.59 L322.78 279.39 L322.78 279.31 L322.69 279.35 L322.95 277.27 L320.13 276.47 L319.51 274.22 L321.12 274.34 L322.33 270.62 L323.00 276.63 L325.01 274.78 L326.54 275.46 L328.19 267.49 L327.57 263.29 L324.34 261.80 L324.79 258.92 L328.46 254.31 L330.34 255.11 L331.28 252.59Z" fill="#c64b22" />
<path class="district" data-district="Lohardaga" d="M250.60 267.97 L252.03 268.17 L252.03 267.89 L251.85 263.33 L261.39 264.77 L261.88 260.48 L266.72 258.16 L271.51 259.04 L275.00 266.33 L277.55 266.21 L278.63 259.64 L280.01 259.08 L281.81 260.44 L285.75 259.04 L289.01 264.97 L291.30 266.09 L290.85 267.73 L296.94 265.81 L298.82 263.16 L298.95 263.29 L300.21 267.37 L302.09 267.73 L303.79 271.74 L305.67 272.42 L305.09 275.06 L306.03 275.98 L306.07 276.02 L306.25 276.18 L306.79 271.86 L308.09 271.42 L307.55 273.50 L310.91 272.86 L310.64 275.98 L310.73 276.02 L315.84 277.87 L319.51 274.22 L319.51 274.22 L320.13 276.47 L322.95 277.27 L322.69 279.35 L322.78 279.31 L322.78 279.39 L326.13 279.59 L327.66 281.87 L327.79 282.63 L326.85 284.20 L321.84 292.25 L319.82 295.49 L319.69 295.73 L319.60 295.86 L320.81 298.42 L319.95 300.22 L319.82 300.54 L322.06 301.34 L322.64 303.67 L321.93 306.47 L321.75 306.59 L318.03 308.80 L314.58 308.11 L313.55 310.24 L306.75 313.08 L305.76 312.84 L306.84 308.39 L305.94 307.15 L300.70 307.19 L298.91 305.75 L294.03 308.96 L290.76 307.23 L288.48 309.28 L284.09 309.20 L281.81 307.07 L278.72 307.63 L274.82 303.83 L271.51 303.87 L268.06 298.46 L266.04 300.34 L266.09 302.91 L263.63 302.22 L262.82 301.30 L263.09 298.10 L263.40 297.14 L263.18 296.78 L263.13 296.66 L262.60 295.73 L258.03 295.65 L256.42 291.37 L262.69 284.36 L260.76 277.63 L261.92 271.98 L262.06 271.38 L259.64 270.70 L259.55 270.66 L259.91 268.93 L257.22 270.02 L250.60 267.97Z" fill="#efc394" />
<path class="district" data-district="Gumla" d="M207.16 305.55 L207.21 305.55 L210.16 305.87 L212.72 303.19 L223.37 306.71 L224.72 304.91 L230.27 303.35 L232.73 298.78 L230.85 289.85 L231.16 289.57 L234.97 286.36 L235.73 287.00 L236.94 283.36 L240.66 284.96 L240.57 283.36 L242.22 283.32 L242.76 278.39 L240.88 271.30 L244.06 270.70 L244.10 268.65 L246.34 267.33 L250.60 267.97 L257.22 270.02 L259.91 268.93 L259.55 270.66 L259.64 270.70 L262.06 271.38 L261.92 271.98 L260.76 277.63 L262.69 284.36 L256.42 291.37 L258.03 295.65 L262.60 295.73 L263.13 296.66 L263.18 296.78 L263.40 297.14 L263.09 298.10 L262.82 301.30 L263.63 302.22 L266.09 302.91 L266.04 300.34 L268.06 298.46 L271.51 303.87 L274.82 303.83 L278.72 307.63 L281.81 307.07 L284.09 309.20 L288.48 309.28 L290.76 307.23 L294.03 308.96 L298.91 305.75 L300.70 307.19 L305.94 307.15 L306.84 308.39 L305.76 312.84 L306.75 313.08 L313.55 310.24 L314.58 308.11 L318.03 308.80 L321.75 306.59 L321.93 306.47 L322.19 306.31 L324.07 307.27 L324.61 308.35 L324.79 308.71 L324.88 308.92 L321.39 312.04 L321.16 315.85 L323.22 317.13 L326.98 319.49 L328.51 320.45 L328.69 320.61 L326.54 323.86 L323.13 324.82 L325.10 325.78 L324.52 328.51 L320.09 328.63 L319.73 333.71 L320.31 335.76 L321.48 336.56 L321.03 338.12 L316.91 338.08 L317.67 342.29 L322.19 344.01 L323.45 347.73 L325.60 346.77 L325.87 347.01 L326.22 347.33 L327.52 348.50 L327.66 351.50 L327.66 351.98 L327.79 356.35 L332.18 356.03 L332.81 356.47 L334.37 357.51 L337.10 359.39 L337.10 360.39 L337.19 362.28 L337.19 363.32 L336.88 363.24 L336.57 363.16 L334.15 362.52 L333.61 362.56 L333.52 362.88 L333.57 366.12 L334.28 366.36 L333.66 369.93 L333.66 370.93 L334.78 374.34 L336.30 378.94 L336.39 379.22 L333.07 378.90 L332.67 381.63 L332.67 381.71 L330.03 383.03 L325.82 380.75 L323.67 385.31 L318.97 388.08 L315.84 384.31 L313.69 383.67 L315.70 390.64 L312.12 389.24 L310.51 386.43 L310.69 391.24 L309.16 392.16 L305.85 390.24 L306.97 385.15 L306.75 383.39 L305.36 385.35 L304.24 384.39 L304.95 380.22 L303.75 381.11 L298.51 379.34 L296.22 381.67 L297.88 383.03 L297.25 384.35 L294.43 384.47 L293.18 387.64 L288.75 389.20 L286.69 387.96 L286.19 389.04 L281.58 388.64 L279.03 391.52 L277.87 391.08 L274.24 388.92 L275.67 386.80 L272.63 384.67 L269.98 387.84 L269.36 387.24 L269.04 386.92 L268.10 385.95 L268.78 385.35 L269.40 384.75 L270.34 383.87 L273.25 383.83 L273.88 381.23 L266.36 379.78 L266.36 376.18 L261.30 374.46 L259.06 374.66 L258.88 377.94 L256.28 378.10 L257.22 379.74 L254.54 384.51 L251.13 382.99 L248.40 385.91 L245.27 384.75 L245.94 386.39 L244.19 387.00 L241.87 384.59 L237.57 383.31 L237.25 383.23 L238.15 380.31 L240.52 379.42 L241.78 372.45 L243.43 370.93 L248.40 370.49 L248.49 370.49 L248.54 370.25 L249.43 367.97 L249.97 366.56 L249.07 364.76 L251.81 361.88 L249.03 355.35 L248.76 354.71 L242.31 354.31 L236.18 356.67 L235.28 352.78 L231.97 355.63 L230.45 354.10 L227.22 354.75 L224.58 350.94 L224.76 348.86 L222.57 348.02 L221.13 350.42 L221.54 354.59 L217.55 356.59 L214.19 346.65 L215.31 340.28 L209.76 336.20 L205.55 336.08 L202.06 331.03 L202.10 328.55 L202.10 328.06 L205.60 323.22 L204.25 317.49 L206.18 311.00 L205.95 310.48 L207.07 305.75 L207.16 305.55 L207.16 305.55Z" fill="#efc394" />
<path class="district" data-district="Khunti" d="M327.66 351.50 L327.66 351.54 L327.97 351.38 L330.30 350.26 L330.43 350.22 L330.57 350.14 L330.70 348.50 L332.54 348.74 L332.58 348.70 L332.58 348.70 L332.67 348.62 L334.10 346.29 L334.87 345.09 L334.64 341.20 L340.19 339.28 L339.12 335.80 L342.97 335.16 L343.06 335.16 L342.07 332.35 L343.55 329.63 L343.51 329.59 L343.51 329.55 L341.36 327.22 L341.54 325.94 L342.07 324.82 L347.76 318.13 L355.10 316.61 L357.39 312.32 L362.00 315.08 L367.01 314.76 L366.79 319.73 L368.45 320.17 L366.16 322.94 L367.46 324.26 L375.25 323.46 L379.82 325.86 L378.75 328.02 L379.73 328.75 L382.42 325.74 L382.33 322.98 L384.88 326.22 L388.82 324.94 L393.21 327.78 L400.06 326.74 L399.25 329.11 L402.48 334.59 L420.70 335.80 L421.19 340.44 L415.96 342.89 L422.45 342.09 L423.97 344.01 L421.69 344.73 L422.27 347.53 L424.78 348.14 L424.15 349.42 L426.34 351.10 L422.76 353.02 L417.75 351.50 L419.13 356.87 L417.48 356.95 L416.81 359.27 L413.72 358.51 L411.57 361.44 L416.31 366.32 L418.91 366.48 L415.42 370.49 L413.94 370.97 L413.27 371.05 L412.78 368.37 L409.37 370.01 L406.60 375.74 L407.13 378.54 L406.33 378.94 L402.52 379.38 L398.45 379.26 L397.91 376.26 L396.61 376.58 L395.63 374.34 L393.61 375.06 L391.69 372.85 L389.31 373.65 L389.09 370.13 L387.03 370.73 L382.64 368.13 L380.58 368.05 L378.30 367.97 L374.40 369.77 L370.01 374.70 L367.69 373.90 L363.21 377.54 L361.78 377.46 L362.22 375.82 L357.43 375.14 L357.34 375.10 L354.43 385.87 L355.96 386.88 L353.31 388.12 L353.94 390.48 L352.06 392.04 L351.39 398.45 L345.93 404.70 L348.57 407.83 L347.81 410.63 L345.70 411.67 L345.97 410.87 L345.16 406.59 L342.93 405.70 L342.75 404.62 L342.34 402.14 L343.91 397.89 L343.87 397.89 L343.01 397.25 L341.22 395.93 L342.25 392.52 L343.60 388.20 L343.55 388.12 L342.25 385.99 L336.84 383.71 L336.16 381.31 L336.12 381.27 L334.95 381.39 L332.67 381.63 L333.07 378.90 L336.39 379.22 L336.30 378.94 L334.78 374.34 L333.66 370.93 L333.66 369.93 L334.28 366.36 L333.57 366.12 L333.52 362.88 L333.61 362.56 L334.15 362.52 L336.57 363.16 L336.88 363.24 L337.19 363.32 L337.19 362.28 L337.10 360.39 L337.10 359.39 L334.37 357.51 L332.81 356.47 L332.18 356.03 L327.79 356.35 L327.66 351.98 L327.66 351.50Z" fill="#eadbc2" />
<path class="district" data-district="Saraikela-Kharsawan" d="M416.31 366.32 L415.91 364.64 L419.22 360.76 L420.84 361.36 L421.28 363.64 L425.40 363.12 L426.61 360.43 L436.64 359.59 L446.13 364.40 L451.51 364.96 L451.51 367.04 L455.31 367.81 L454.42 365.60 L457.02 361.44 L455.40 359.43 L453.79 359.63 L452.94 353.86 L448.19 350.30 L449.72 347.90 L447.84 341.12 L446.76 340.56 L446.63 340.20 L448.78 338.88 L452.58 332.63 L454.78 331.35 L456.21 332.35 L456.43 330.15 L456.43 330.07 L459.39 330.11 L458.22 328.71 L462.61 331.51 L462.66 331.51 L462.66 331.51 L468.21 329.47 L468.30 329.47 L480.25 331.71 L481.78 334.59 L481.02 337.08 L490.33 340.04 L494.45 341.37 L493.82 343.85 L495.97 346.37 L496.73 347.29 L499.91 351.06 L502.96 350.66 L502.87 351.74 L502.87 351.74 L507.07 352.50 L507.12 352.46 L507.70 352.30 L507.70 353.18 L507.70 355.39 L507.66 355.47 L501.75 356.23 L500.18 359.03 L501.30 359.87 L500.40 362.72 L501.34 366.32 L504.57 367.08 L501.88 371.89 L501.70 376.98 L496.33 374.46 L494.49 378.34 L494.31 378.74 L494.54 378.86 L495.52 379.42 L498.03 380.91 L498.39 381.23 L498.39 381.35 L496.24 386.11 L497.22 397.53 L497.00 398.13 L494.85 402.90 L483.48 413.24 L481.60 412.35 L480.61 411.87 L477.52 414.96 L478.87 416.36 L478.15 417.80 L472.06 419.04 L469.02 423.21 L464.22 421.33 L460.42 417.56 L461.22 414.80 L456.61 412.47 L460.37 410.15 L462.21 406.59 L458.09 403.86 L456.07 404.98 L457.28 402.62 L457.15 402.38 L456.88 401.90 L455.81 399.98 L456.12 395.65 L455.40 393.61 L455.49 391.64 L454.33 390.64 L454.24 390.60 L453.84 390.20 L452.09 392.20 L450.39 390.40 L446.45 390.84 L446.27 391.00 L445.69 391.44 L444.79 392.12 L443.09 393.41 L439.33 393.04 L435.93 395.57 L432.57 393.61 L430.28 389.28 L431.22 387.24 L434.76 387.28 L434.94 385.75 L431.85 382.43 L432.84 378.58 L425.13 372.45 L421.51 372.89 L420.03 375.86 L414.12 374.82 L412.91 376.46 L410.22 376.70 L409.82 378.50 L407.13 378.54 L406.60 375.74 L409.37 370.01 L412.78 368.37 L413.27 371.05 L413.94 370.97 L415.42 370.49 L418.91 366.48 L416.31 366.32Z" fill="#eadbc2" />
<path class="district" data-district="East Singhbhum" d="M483.48 413.24 L494.85 402.90 L497.00 398.13 L497.22 397.53 L496.24 386.11 L498.39 381.35 L498.39 381.23 L498.03 380.91 L495.52 379.42 L494.54 378.86 L494.31 378.74 L494.49 378.34 L496.33 374.46 L501.70 376.98 L501.88 371.89 L504.57 367.08 L501.34 366.32 L500.40 362.72 L501.30 359.87 L500.18 359.03 L501.75 356.23 L507.66 355.47 L507.70 355.39 L507.70 353.18 L507.70 352.30 L513.75 350.34 L516.52 349.62 L519.43 352.50 L526.46 352.02 L528.84 354.43 L532.33 351.70 L536.13 353.42 L543.70 352.54 L545.40 354.91 L544.60 355.55 L546.16 355.87 L550.06 353.26 L549.75 356.51 L547.91 356.67 L547.06 359.11 L543.93 358.51 L542.00 360.43 L540.30 358.47 L534.61 362.08 L536.99 365.16 L539.00 365.52 L537.07 367.61 L536.72 370.89 L534.48 371.13 L535.02 375.22 L532.37 380.79 L538.02 384.63 L545.00 392.72 L545.49 390.84 L545.58 390.84 L547.78 390.68 L551.76 391.68 L551.76 391.68 L551.85 391.56 L562.28 398.17 L562.82 398.89 L563.05 399.13 L563.13 399.29 L562.02 405.74 L565.19 408.47 L565.51 410.63 L572.67 409.63 L577.73 410.27 L579.52 410.51 L580.42 410.63 L580.42 411.39 L580.51 413.36 L580.82 413.48 L582.39 414.04 L583.64 414.52 L583.64 414.52 L583.64 414.60 L585.21 422.57 L585.25 422.77 L585.25 422.81 L584.18 424.25 L578.31 423.57 L578.36 427.26 L580.06 428.46 L580.24 431.30 L586.96 432.35 L591.48 435.03 L589.78 445.33 L597.34 449.25 L597.21 454.74 L597.16 454.74 L588.48 453.50 L587.49 455.30 L587.00 453.38 L585.57 456.58 L585.30 453.66 L584.05 453.54 L584.36 456.74 L586.87 457.02 L585.43 460.27 L582.12 460.23 L583.02 458.47 L584.45 458.87 L582.61 457.62 L581.81 460.23 L579.16 461.19 L575.00 460.55 L575.00 460.55 L575.00 460.55 L575.05 460.43 L575.05 460.35 L569.27 459.59 L567.48 456.98 L567.30 457.02 L567.21 456.90 L565.69 457.46 L565.06 457.66 L564.39 455.22 L563.85 453.34 L563.85 453.34 L559.19 451.29 L556.82 451.98 L555.03 448.81 L554.94 448.65 L551.13 449.09 L549.16 447.73 L548.31 448.73 L547.60 445.73 L544.96 445.08 L543.12 442.40 L543.08 442.32 L542.99 442.40 L538.51 445.41 L536.27 445.04 L536.18 445.04 L535.87 448.09 L534.21 447.97 L533.76 446.57 L524.05 442.12 L518.99 437.11 L513.48 428.38 L511.55 429.14 L505.51 427.66 L503.05 424.81 L490.64 422.97 L490.60 422.97 L483.79 413.40 L483.48 413.24 L483.48 413.24Z" fill="#dd7b3b" />
<path class="district" data-district="West Singhbhum" d="M345.70 411.67 L347.81 410.63 L348.57 407.83 L345.93 404.70 L351.39 398.45 L352.06 392.04 L353.94 390.48 L353.31 388.12 L355.96 386.88 L354.43 385.87 L357.34 375.10 L357.43 375.14 L362.22 375.82 L361.78 377.46 L363.21 377.54 L367.69 373.90 L370.01 374.70 L374.40 369.77 L378.30 367.97 L380.58 368.05 L382.64 368.13 L387.03 370.73 L389.09 370.13 L389.31 373.65 L391.69 372.85 L393.61 375.06 L395.63 374.34 L396.61 376.58 L397.91 376.26 L398.45 379.26 L402.52 379.38 L406.33 378.94 L407.13 378.54 L409.82 378.50 L410.22 376.70 L412.91 376.46 L414.12 374.82 L420.03 375.86 L421.51 372.89 L425.13 372.45 L432.84 378.58 L431.85 382.43 L434.94 385.75 L434.76 387.28 L431.22 387.24 L430.28 389.28 L432.57 393.61 L435.93 395.57 L439.33 393.04 L443.09 393.41 L444.79 392.12 L445.69 391.44 L446.27 391.00 L446.45 390.84 L450.39 390.40 L452.09 392.20 L453.84 390.20 L454.24 390.60 L454.33 390.64 L455.49 391.64 L455.40 393.61 L456.12 395.65 L455.81 399.98 L456.88 401.90 L457.15 402.38 L457.28 402.62 L456.07 404.98 L458.09 403.86 L462.21 406.59 L460.37 410.15 L456.61 412.47 L461.22 414.80 L460.42 417.56 L464.22 421.33 L469.02 423.21 L468.30 425.94 L468.25 426.02 L468.25 426.06 L468.34 426.14 L469.82 427.66 L471.48 429.30 L472.33 430.14 L472.78 430.30 L476.72 431.42 L477.88 436.11 L477.66 438.63 L473.90 443.12 L478.24 444.12 L476.36 447.17 L480.34 447.69 L476.58 449.25 L472.55 453.46 L472.78 455.22 L470.58 456.22 L478.51 464.15 L473.72 472.13 L475.46 474.41 L466.37 487.67 L464.58 487.27 L462.84 489.19 L461.63 494.00 L459.88 492.72 L450.03 493.96 L448.96 492.52 L444.21 492.64 L441.75 491.20 L441.12 488.99 L444.12 486.11 L443.31 482.78 L445.87 479.30 L448.96 480.30 L451.78 479.46 L451.33 477.57 L448.55 477.29 L449.63 475.73 L447.79 474.45 L447.70 474.53 L439.42 480.30 L430.24 482.54 L429.88 482.10 L429.93 481.98 L426.52 477.53 L426.16 477.61 L418.64 479.62 L413.54 477.25 L411.12 478.06 L407.85 475.13 L407.22 474.57 L403.73 473.13 L392.13 468.44 L390.66 467.84 L387.97 468.20 L386.85 468.36 L386.27 468.44 L386.27 469.24 L386.31 473.45 L381.84 472.97 L380.31 472.81 L379.15 473.81 L376.24 476.41 L374.49 477.94 L374.27 478.46 L373.64 479.06 L368.54 489.11 L366.25 487.99 L365.22 483.62 L361.46 482.42 L360.52 480.42 L360.48 480.30 L358.73 480.90 L359.18 482.66 L358.51 481.74 L357.52 479.90 L357.21 479.94 L352.42 480.66 L349.15 475.81 L343.19 474.45 L342.30 474.65 L340.42 475.01 L338.85 475.33 L335.58 478.98 L333.34 478.58 L333.39 477.25 L339.43 473.53 L339.66 467.96 L343.01 465.00 L342.39 463.51 L346.33 454.82 L345.34 452.42 L351.70 449.65 L351.88 446.45 L348.25 446.65 L348.75 442.68 L346.10 441.08 L347.49 435.03 L343.78 428.26 L346.15 426.18 L346.01 424.09 L346.01 423.89 L345.61 423.85 L344.81 423.33 L345.16 422.41 L346.28 419.41 L346.46 418.64 L345.03 416.52 L344.45 415.64 L344.40 415.60 L344.98 411.99 L345.70 411.67Z" fill="#e7a96a" />
<path class="district" data-district="Simdega" d="M237.57 383.31 L241.87 384.59 L244.19 387.00 L245.94 386.39 L245.27 384.75 L248.40 385.91 L251.13 382.99 L254.54 384.51 L257.22 379.74 L256.28 378.10 L258.88 377.94 L259.06 374.66 L261.30 374.46 L266.36 376.18 L266.36 379.78 L273.88 381.23 L273.25 383.83 L270.34 383.87 L269.40 384.75 L268.78 385.35 L268.10 385.95 L269.04 386.92 L269.36 387.24 L269.98 387.84 L272.63 384.67 L275.67 386.80 L274.24 388.92 L277.87 391.08 L279.03 391.52 L281.58 388.64 L286.19 389.04 L286.69 387.96 L288.75 389.20 L293.18 387.64 L294.43 384.47 L297.25 384.35 L297.88 383.03 L296.22 381.67 L298.51 379.34 L303.75 381.11 L304.95 380.22 L304.24 384.39 L305.36 385.35 L306.75 383.39 L306.97 385.15 L305.85 390.24 L309.16 392.16 L310.69 391.24 L310.51 386.43 L312.12 389.24 L315.70 390.64 L313.69 383.67 L315.84 384.31 L318.97 388.08 L323.67 385.31 L325.82 380.75 L330.03 383.03 L332.67 381.71 L332.67 381.63 L334.95 381.39 L336.12 381.27 L336.16 381.31 L336.84 383.71 L342.25 385.99 L343.55 388.12 L343.60 388.20 L342.25 392.52 L341.22 395.93 L343.01 397.25 L343.87 397.89 L343.91 397.89 L342.34 402.14 L342.75 404.62 L342.93 405.70 L345.16 406.59 L345.97 410.87 L345.70 411.67 L344.98 411.99 L344.40 415.60 L344.45 415.64 L345.03 416.52 L346.46 418.64 L346.28 419.41 L345.16 422.41 L342.43 423.53 L340.82 423.37 L340.46 424.33 L329.81 428.78 L329.18 426.86 L324.61 428.90 L325.24 430.14 L323.40 431.54 L320.18 432.14 L319.69 432.18 L318.88 428.22 L312.88 430.66 L310.19 429.86 L309.16 427.62 L302.09 428.54 L300.84 432.39 L289.24 432.31 L284.04 430.22 L271.06 431.26 L263.40 433.15 L262.82 434.87 L264.12 436.51 L256.60 438.76 L256.37 441.60 L237.25 442.92 L231.52 437.91 L224.13 438.03 L218.49 433.95 L216.39 431.46 L216.34 424.77 L212.31 424.33 L205.10 418.88 L198.48 417.32 L198.03 416.44 L198.12 410.99 L200.18 408.39 L204.12 407.83 L208.46 401.98 L217.95 402.18 L224.58 398.05 L227.36 397.93 L229.82 394.53 L229.01 387.88 L232.87 384.03 L236.76 384.19 L236.94 384.19 L237.03 383.87 L237.57 383.31Z" fill="#eadbc2" />
<path class="district" data-district="Koderma" d="M460.60 106.92 L458.18 109.01 L458.36 111.61 L454.10 110.49 L448.87 112.73 L452.18 120.35 L448.69 120.43 L446.27 120.51 L445.55 120.51 L442.64 123.75 L442.64 123.79 L442.69 125.15 L442.78 128.40 L442.78 128.44 L444.52 129.56 L446.67 128.60 L445.19 131.28 L447.43 133.57 L447.93 136.89 L447.93 137.01 L455.94 140.10 L454.24 148.19 L450.61 151.31 L451.51 154.20 L454.06 155.68 L452.72 165.86 L453.52 167.62 L456.07 168.18 L456.66 173.19 L455.04 173.19 L453.48 175.11 L451.19 174.03 L449.22 176.39 L449.04 172.31 L441.34 170.98 L439.73 173.83 L436.37 171.50 L432.39 172.99 L430.33 170.02 L425.63 168.34 L425.94 169.58 L424.42 169.78 L424.51 167.22 L421.19 167.82 L419.67 165.98 L417.52 166.94 L415.51 164.33 L414.61 166.10 L411.25 164.93 L407.09 169.06 L401.49 167.10 L399.97 168.02 L398.09 166.34 L395.90 167.02 L394.28 163.53 L391.37 164.97 L390.66 162.97 L392.76 156.56 L394.01 156.88 L394.91 154.52 L396.75 154.80 L392.90 151.55 L391.51 152.35 L389.54 146.43 L388.33 147.87 L387.88 147.91 L384.75 147.67 L380.90 145.58 L381.43 142.42 L389.85 139.61 L390.66 137.53 L387.52 136.33 L388.24 136.17 L395.76 139.86 L404.18 137.45 L404.85 137.85 L405.93 140.26 L408.16 140.86 L410.63 139.33 L410.54 135.13 L413.27 136.45 L414.79 135.21 L414.03 131.68 L416.04 129.80 L420.84 132.56 L428.13 132.80 L428.22 132.68 L428.31 132.60 L429.48 131.16 L429.30 127.60 L427.96 121.43 L425.49 118.18 L430.01 117.18 L433.60 112.61 L433.60 105.00 L435.70 104.08 L437.90 99.47 L443.40 102.64 L447.79 102.96 L449.90 101.00 L455.76 101.52 L458.90 103.16 L458.45 104.40 L460.60 106.92Z" fill="#efc394" />
<path class="district" data-district="Hazaribagh" d="M453.48 175.11 L453.39 175.19 L451.33 177.63 L451.37 177.67 L453.93 178.59 L454.64 183.64 L453.03 182.68 L449.09 184.04 L446.67 181.68 L445.37 183.76 L430.06 188.73 L429.03 192.70 L434.22 195.58 L434.04 199.03 L437.27 199.99 L442.24 198.71 L443.31 199.07 L442.15 200.23 L447.12 202.19 L446.58 203.71 L448.60 204.47 L451.42 203.11 L453.97 206.44 L456.43 205.96 L456.93 208.48 L454.33 210.56 L456.93 212.21 L456.97 212.21 L459.12 211.04 L459.25 211.12 L460.02 214.17 L464.49 215.93 L464.45 218.82 L462.34 220.02 L462.34 220.02 L461.90 220.30 L458.85 219.14 L458.27 225.71 L454.91 231.80 L451.28 235.20 L448.24 234.56 L446.76 232.52 L446.45 227.47 L441.39 223.30 L441.34 220.78 L437.76 219.94 L434.27 223.58 L434.27 223.62 L430.42 218.26 L430.51 218.18 L432.21 216.17 L432.03 216.05 L431.72 215.73 L429.34 214.93 L429.16 214.93 L428.85 215.97 L428.22 218.54 L427.96 218.70 L427.37 219.06 L426.70 219.42 L425.31 219.30 L424.69 219.26 L419.81 218.90 L419.63 221.82 L415.33 224.39 L413.72 227.43 L414.97 229.91 L413.36 234.20 L407.27 233.56 L406.82 235.00 L403.19 235.44 L402.75 237.16 L394.55 241.65 L395.31 243.94 L400.64 245.62 L398.63 250.87 L396.57 251.63 L396.43 253.43 L394.69 253.47 L394.24 256.88 L397.19 260.92 L388.82 260.20 L388.82 258.72 L385.42 258.36 L382.06 254.11 L377.90 256.96 L371.72 255.15 L369.66 253.27 L369.30 253.11 L368.09 255.23 L367.37 256.84 L367.24 256.80 L367.15 256.80 L366.52 254.55 L361.46 253.35 L358.51 259.40 L357.39 258.32 L351.61 259.84 L346.15 259.16 L343.82 256.76 L343.78 255.99 L344.18 255.35 L345.34 255.11 L344.98 254.07 L344.90 253.75 L344.76 253.31 L342.84 253.15 L342.75 252.95 L341.90 250.18 L344.40 250.22 L342.16 248.10 L341.58 239.41 L342.03 236.96 L343.78 236.16 L339.70 232.52 L339.88 229.95 L339.88 229.79 L338.49 229.59 L338.45 229.59 L338.49 229.39 L339.39 224.83 L341.94 225.07 L340.82 221.54 L343.24 218.86 L339.39 218.10 L338.94 214.25 L341.49 212.77 L342.93 215.05 L346.10 215.41 L345.88 218.38 L347.22 218.86 L349.15 216.45 L352.69 216.37 L356.09 219.94 L363.21 219.18 L363.39 219.06 L363.43 218.90 L365.04 214.17 L365.04 214.13 L365.04 214.13 L365.09 214.09 L366.88 213.53 L367.33 211.81 L367.37 211.53 L367.37 211.49 L369.88 211.37 L369.93 211.29 L370.01 208.32 L369.16 204.23 L368.31 203.23 L359.09 199.27 L359.72 197.66 L358.46 196.26 L359.67 195.90 L356.49 191.25 L355.33 191.41 L356.13 187.73 L354.25 184.52 L356.18 184.04 L357.79 181.20 L373.19 183.08 L377.40 185.45 L377.13 180.28 L380.09 178.71 L379.01 177.91 L379.51 172.59 L380.76 172.14 L380.09 170.14 L383.58 170.54 L384.88 172.51 L388.19 170.02 L388.10 168.50 L388.10 168.50 L388.10 168.50 L385.82 170.30 L385.60 170.26 L384.66 170.02 L382.60 169.50 L382.10 169.22 L378.88 167.10 L377.40 166.14 L374.67 166.98 L366.93 165.33 L364.15 166.02 L363.21 167.90 L363.21 167.94 L360.88 166.82 L354.39 163.69 L355.24 167.42 L349.42 167.54 L347.49 162.77 L347.22 162.13 L347.67 161.73 L348.43 161.09 L349.19 161.29 L352.60 157.36 L359.54 154.64 L359.81 154.52 L356.81 150.99 L357.88 149.23 L366.88 148.87 L370.10 145.02 L374.72 144.90 L375.48 140.58 L384.52 140.62 L381.43 142.42 L380.90 145.58 L384.75 147.67 L387.88 147.91 L388.33 147.87 L389.54 146.43 L391.51 152.35 L392.90 151.55 L396.75 154.80 L394.91 154.52 L394.01 156.88 L392.76 156.56 L390.66 162.97 L391.37 164.97 L394.28 163.53 L395.90 167.02 L398.09 166.34 L399.97 168.02 L401.49 167.10 L407.09 169.06 L411.25 164.93 L414.61 166.10 L415.51 164.33 L417.52 166.94 L419.67 165.98 L421.19 167.82 L424.51 167.22 L424.42 169.78 L425.94 169.58 L425.63 168.34 L430.33 170.02 L432.39 172.99 L436.37 171.50 L439.73 173.83 L441.34 170.98 L449.04 172.31 L449.22 176.39 L451.19 174.03 L453.48 175.11Z" fill="#dd7b3b" /></g>
  <g><text x="703.6" y="77.0" class="label"><tspan x="703.6" dy="0">SAHIBGANJ</tspan></text>
<text x="656.2" y="100.2" class="label"><tspan x="656.2" dy="0">GODDA</tspan></text>
<text x="709.2" y="131.0" class="label"><tspan x="709.2" dy="0">PAKUR</tspan></text>
<text x="489.5" y="174.1" class="label"><tspan x="489.5" dy="0">GIRIDIH</tspan></text>
<text x="646.9" y="173.4" class="label"><tspan x="646.9" dy="0">DUMKA</tspan></text>
<text x="576.9" y="169.3" class="label"><tspan x="576.9" dy="0">DEOGHAR</tspan></text>
<text x="225.4" y="185.2" class="label"><tspan x="225.4" dy="0">PALAMU</tspan></text>
<text x="328.9" y="196.6" class="label"><tspan x="328.9" dy="0">CHATRA</tspan></text>
<text x="160.8" y="204.2" class="label"><tspan x="160.8" dy="0">GARHWA</tspan></text>
<text x="602.8" y="218.0" class="label"><tspan x="602.8" dy="0">JAMTARA</tspan></text>
<text x="538.6" y="235.2" class="label"><tspan x="538.6" dy="0">DHANBAD</tspan></text>
<text x="265.3" y="251.5" class="label"><tspan x="265.3" dy="0">LATEHAR</tspan></text>
<text x="475.1" y="253.5" class="label"><tspan x="475.1" dy="0">BOKARO</tspan></text>
<text x="414.1" y="263.5" class="label"><tspan x="414.1" dy="0">RAMGARH</tspan></text>
<text x="381.4" y="308.2" class="label"><tspan x="381.4" dy="0">RANCHI</tspan></text>
<text x="292.4" y="284.5" class="label"><tspan x="292.4" dy="0">LOHARDAGA</tspan></text>
<text x="278.3" y="342.1" class="label"><tspan x="278.3" dy="0">GUMLA</tspan></text>
<text x="365.1" y="360.5" class="label"><tspan x="365.1" dy="0">KHUNTI</tspan></text>
<text x="460.8" y="372.2" class="label"><tspan x="460.8" dy="0">SARAIKELA
KHARSAWAN</tspan></text>
<text x="546.9" y="411.1" class="label"><tspan x="546.9" dy="0">EAST
SINGHBHUM</tspan></text>
<text x="406.9" y="433.1" class="label"><tspan x="406.9" dy="0">WEST
SINGHBHUM</tspan></text>
<text x="288.0" y="400.7" class="label"><tspan x="288.0" dy="0">SIMDEGA</tspan></text>
<text x="426.2" y="142.3" class="label"><tspan x="426.2" dy="0">KODERMA</tspan></text>
<text x="393.5" y="202.5" class="label"><tspan x="393.5" dy="0">HAZARIBAGH</tspan></text></g>
</svg>